<?xml version="1.0" encoding="UTF-8" standalone="no"?>
<!-- Created with Inkscape (http://www.inkscape.org/) -->

<svg
   version="1.1"
   id="svg8715"
   width="880"
   height="880"
   viewBox="0 0 880 880"
   sodipodi:docname="tropical-island-publicdomain-vector.svg"
   inkscape:version="1.2 (dc2aedaf03, 2022-05-15)"
   xmlns:inkscape="http://www.inkscape.org/namespaces/inkscape"
   xmlns:sodipodi="http://sodipodi.sourceforge.net/DTD/sodipodi-0.dtd"
   xmlns="http://www.w3.org/2000/svg"
   xmlns:svg="http://www.w3.org/2000/svg">
  <defs
     id="defs8719">
    <clipPath
       clipPathUnits="userSpaceOnUse"
       id="clipPath8733">
      <path
         d="M 0,660 H 660 V 0 H 0 Z"
         id="path8731" />
    </clipPath>
  </defs>
  <sodipodi:namedview
     id="namedview8717"
     pagecolor="#ffffff"
     bordercolor="#000000"
     borderopacity="0.25"
     inkscape:showpageshadow="2"
     inkscape:pageopacity="0.0"
     inkscape:pagecheckerboard="0"
     inkscape:deskcolor="#d1d1d1"
     showgrid="false"
     inkscape:zoom="0.95113636"
     inkscape:cx="441.05137"
     inkscape:cy="440.52569"
     inkscape:window-width="1920"
     inkscape:window-height="1017"
     inkscape:window-x="-8"
     inkscape:window-y="-8"
     inkscape:window-maximized="1"
     inkscape:current-layer="g8723">
    <inkscape:page
       x="0"
       y="0"
       id="page8721"
       width="880"
       height="880" />
  </sodipodi:namedview>
  <g
     id="g8723"
     inkscape:groupmode="layer"
     inkscape:label="Page 1"
     transform="matrix(1.3333333,0,0,-1.3333333,0,880)">
    <path
       d="M 0,0 H 660 V 660 H 0 Z"
       style="fill:#9bdef5;fill-opacity:1;fill-rule:nonzero;stroke:none"
       id="path8725" />
    <g
       id="g8727">
      <g
         id="g8729"
         clip-path="url(#clipPath8733)">
        <g
           id="g8735"
           transform="translate(161.2031,517.418)">
          <path
             d="m 0,0 c 22.698,0 41.21,18.513 41.21,41.211 0,22.697 -18.512,41.21 -41.21,41.21 -22.698,0 -41.21,-18.513 -41.21,-41.21 C -41.21,18.513 -22.698,0 0,0"
             style="fill:#fffad6;fill-opacity:1;fill-rule:evenodd;stroke:none"
             id="path8737" />
        </g>
        <g
           id="g8739"
           transform="translate(660.4258,170.3145)">
          <path
             d="m 0,0 c -64.278,-3.352 -133.034,-5.172 -204.509,-5.172 -177.898,0 -339.003,11.249 -455.917,29.45 v 133.738 c 19.916,1.082 121.882,5.732 133.211,15.553 12.507,13.89 0.223,17.986 32.718,22.002 21.935,2.711 30.461,-0.787 51.853,-6.608 45.64,-12.421 52.491,-9.957 97.947,-3.998 43.749,5.735 83.497,-1.073 126.813,-7.578 28.281,-4.294 109.232,-15.206 132.503,-2.937 23.487,12.383 13.235,25.635 53.391,23.93 10.682,-0.452 21.304,-0.731 31.99,-0.958 C 0.007,131.614 0,65.808 0,0"
             style="fill:#cff1fc;fill-opacity:1;fill-rule:evenodd;stroke:none"
             id="path8741" />
        </g>
        <g
           id="g8743"
           transform="translate(660.4258,481.3262)">
          <path
             d="m 0,0 v -8.919 c -45.961,-4.502 -64.113,-7.165 -111.918,-32.263 -49.534,-26.005 -101.332,-22.942 -155.934,-21.835 -18.496,0.374 -29.372,0.841 -45.143,11.032 18.218,8.027 88.797,26.489 94.523,31.856 -63,2.508 -96.212,-14.369 -164.432,3.494 -77.743,20.356 -144.575,-2.578 -214.516,44.123 l -6.729,4.859 c -18.671,15.815 -37.239,12.057 -56.277,2.382 v 8.348 c 17.557,9.137 36.15,13.193 54.303,2.431 98.745,-57.033 86.123,-32.856 187.3,-40.199 42.925,-3.115 62.581,-19.242 115.288,-19.082 39.013,0.121 81.968,8.405 117.858,6.814 -19.605,-25.222 -68.412,-22.418 -86.757,-40.632 34.855,-14.291 118.691,-10.15 154.933,10.965 C -67.962,-7.761 -60.347,-1.937 0,0"
             style="fill:#cff1fc;fill-opacity:1;fill-rule:evenodd;stroke:none"
             id="path8745" />
        </g>
        <g
           id="g8747"
           transform="translate(465.0703,329.5537)">
          <path
             d="m 0,0 c 14.058,38.259 6.399,57.466 30.114,98.37 2.404,4.144 0.557,3.703 6.495,1.457 C 15.94,59.108 22.711,51.495 15.804,11.119 14.979,6.299 13.948,2.151 12.634,-2.547 Z"
             style="fill:#996633;fill-opacity:1;fill-rule:evenodd;stroke:none"
             id="path8749" />
        </g>
        <g
           id="g8751"
           transform="translate(504.8633,429.2188)">
          <path
             d="m 0,0 -41.103,1.813 -14.622,-15.03 0.803,26.07 z"
             style="fill:#94ab13;fill-opacity:1;fill-rule:evenodd;stroke:none"
             id="path8753" />
        </g>
        <g
           id="g8755"
           transform="translate(470.8262,423.6699)">
          <path
             d="M 0,0 -3.202,-19.929 11.811,-8.169 30.535,8.977 Z"
             style="fill:#94ab13;fill-opacity:1;fill-rule:evenodd;stroke:none"
             id="path8757" />
        </g>
        <g
           id="g8759"
           transform="translate(498.3066,430.1108)">
          <path
             d="m 0,0 10.506,-19.699 -7.947,-10.471 17.205,7.726 -0.681,0.896 z"
             style="fill:#94ab13;fill-opacity:1;fill-rule:evenodd;stroke:none"
             id="path8761" />
        </g>
        <g
           id="g8763"
           transform="translate(491.9629,432.0288)">
          <path
             d="m 0,0 52.21,-7.051 0.692,-16.083 -17.111,10.998 z"
             style="fill:#94ab13;fill-opacity:1;fill-rule:evenodd;stroke:none"
             id="path8765" />
        </g>
        <g
           id="g8767"
           transform="translate(494.7832,429.0566)">
          <path
             d="M 0,0 31.131,19.059 45.967,9.684 37.282,-2.166 28.61,5.332 Z"
             style="fill:#94ab13;fill-opacity:1;fill-rule:evenodd;stroke:none"
             id="path8769" />
        </g>
        <g
           id="g8771"
           transform="translate(500.0928,426.7266)">
          <path
             d="m 0,0 -1.54,29.01 -20.65,-1.36 6.942,-13.493 5.77,1.381 z"
             style="fill:#94ab13;fill-opacity:1;fill-rule:evenodd;stroke:none"
             id="path8773" />
        </g>
        <g
           id="g8775"
           transform="translate(509.252,447.9946)">
          <path
             d="M 0,0 11.131,-0.15 -10.966,-18.16 -6.262,5.474 Z"
             style="fill:#94ab13;fill-opacity:1;fill-rule:evenodd;stroke:none"
             id="path8777" />
        </g>
        <g
           id="g8779"
           transform="translate(393.6143,333.9878)">
          <path
             d="m 0,0 c 5.683,47.135 -5.851,67.176 8.712,119.707 1.476,5.321 -0.235,4.363 6.043,3.26 C 3.13,71.399 11.352,64.373 13.106,16.582 13.315,10.877 13.183,5.888 12.889,0.201 Z"
             style="fill:#996633;fill-opacity:1;fill-rule:evenodd;stroke:none"
             id="path8781" />
        </g>
        <g
           id="g8783"
           transform="translate(411.5137,457.5542)">
          <path
             d="M 0,0 -40.563,-8.044 -51.689,-28.8 -56.397,1.159 Z"
             style="fill:#94ab13;fill-opacity:1;fill-rule:evenodd;stroke:none"
             id="path8785" />
        </g>
        <g
           id="g8787"
           transform="translate(379.4111,442.8447)">
          <path
             d="m 0,0 1.07,-23.538 12.196,17.119 14.692,24.18 z"
             style="fill:#94ab13;fill-opacity:1;fill-rule:evenodd;stroke:none"
             id="path8789" />
        </g>
        <g
           id="g8791"
           transform="translate(404.916,456.9595)">
          <path
             d="m 0,0 14.422,-19.903 -5.564,-13.909 15.194,13.053 -0.856,0.856 z"
             style="fill:#94ab13;fill-opacity:1;fill-rule:evenodd;stroke:none"
             id="path8793" />
        </g>
        <g
           id="g8795"
           transform="translate(398.3115,457.5879)">
          <path
             d="m 0,0 52.524,4.797 4.067,-18.19 -19.046,8.346 z"
             style="fill:#94ab13;fill-opacity:1;fill-rule:evenodd;stroke:none"
             id="path8797" />
        </g>
        <g
           id="g8799"
           transform="translate(401.6943,454.8892)">
          <path
             d="M 0,0 26.418,29.417 42.895,22.364 36.902,6.701 26.845,13.126 Z"
             style="fill:#94ab13;fill-opacity:1;fill-rule:evenodd;stroke:none"
             id="path8801" />
        </g>
        <g
           id="g8803"
           transform="translate(407.377,453.5352)">
          <path
             d="m 0,0 -7.618,32.739 -19.901,-6.635 9.629,-13.693 5.35,2.995 z"
             style="fill:#94ab13;fill-opacity:1;fill-rule:evenodd;stroke:none"
             id="path8805" />
        </g>
        <g
           id="g8807"
           transform="translate(411.8486,480.0679)">
          <path
             d="M 0,0 10.912,2.568 -6.893,-23.428 -7.275,4.707 Z"
             style="fill:#94ab13;fill-opacity:1;fill-rule:evenodd;stroke:none"
             id="path8809" />
        </g>
        <g
           id="g8811"
           transform="translate(324.6724,324.7285)">
          <path
             d="m 0,0 c -1.64,-0.89 -3.52,-1.395 -5.517,-1.395 -6.394,0 -11.58,5.184 -11.58,11.58 0,5.084 3.278,9.402 7.836,10.96 1.929,8.792 9.764,15.374 19.135,15.374 10.27,0 18.693,-7.902 19.526,-17.955 1.772,0.907 3.779,1.419 5.906,1.419 1.974,0 3.842,-0.439 5.515,-1.227 -0.769,2.13 -1.19,4.428 -1.19,6.824 0,11.099 8.998,20.096 20.096,20.096 10.416,0 18.979,-7.922 19.996,-18.069 0.997,0.171 2.023,0.263 3.067,0.263 4.496,0 8.606,-1.65 11.756,-4.377 0.85,3.983 2.794,7.559 5.505,10.399 -1.675,2.122 -2.673,4.801 -2.673,7.714 0,6.884 5.579,12.465 12.464,12.465 6.885,0 12.464,-5.581 12.464,-12.465 0,-0.68 -0.055,-1.348 -0.158,-1.998 5.602,-1.75 10.226,-5.719 12.842,-10.878 1.756,0.644 3.634,1.039 5.589,1.145 -0.629,1.671 -0.974,3.481 -0.974,5.371 0,8.332 6.676,15.104 14.97,15.26 2.504,4.694 7.448,7.89 13.139,7.89 8.218,0 14.881,-6.663 14.881,-14.882 0,-0.213 -0.005,-0.425 -0.014,-0.635 7.463,-2.867 13.056,-9.51 14.438,-17.59 8.423,-0.55 15.086,-7.555 15.086,-16.118 0,-0.872 -0.07,-1.729 -0.204,-2.564 1.842,-1.728 2.989,-4.182 2.989,-6.905 0,-5.229 -4.239,-9.47 -9.468,-9.47 -2.724,0 -5.177,1.149 -6.906,2.99 -0.835,-0.134 -1.691,-0.203 -2.564,-0.203 -5.485,0 -10.331,2.734 -13.25,6.912 -2.596,-1.013 -5.419,-1.571 -8.372,-1.571 -5.564,0 -10.667,1.973 -14.646,5.258 -2.792,-7.243 -9.817,-12.381 -18.044,-12.381 -6.669,0 -12.549,3.377 -16.024,8.514 -2.972,-1.538 -6.345,-2.407 -9.922,-2.407 -6.254,0 -11.887,2.654 -15.835,6.898 -2.368,-7.159 -9.113,-12.324 -17.069,-12.324 -8.672,0 -15.912,6.144 -17.601,14.317 -1.735,-0.489 -3.568,-0.752 -5.462,-0.752 -0.96,0 -1.904,0.068 -2.828,0.198 0.348,-0.976 0.539,-2.027 0.539,-3.123 0,-5.127 -4.156,-9.284 -9.284,-9.284 -2.454,0 -4.687,0.952 -6.346,2.507 -1.911,-1.109 -4.133,-1.744 -6.502,-1.744 -5.58,0 -10.338,3.525 -12.168,8.468 C 19.648,-0.706 14.992,-2.668 9.874,-2.668 6.273,-2.668 2.898,-1.695 0,0"
             style="fill:#82970a;fill-opacity:1;fill-rule:evenodd;stroke:none"
             id="path8813" />
        </g>
        <g
           id="g8815"
           transform="translate(427.3916,251.8574)">
          <path
             d="M 0,0 C 122.316,0 222.077,18.512 222.077,41.21 222.077,63.908 122.316,82.421 0,82.421 -122.315,82.421 -222.078,63.908 -222.078,41.21 -222.078,18.512 -122.315,0 0,0"
             style="fill:#ffdb6e;fill-opacity:1;fill-rule:evenodd;stroke:none"
             id="path8817" />
        </g>
        <g
           id="g8819"
           transform="translate(558.5898,326.3174)">
          <path
             d="m 0,0 c -2.42,-0.814 -4.91,-1.319 -7.375,-1.464 -12.457,-0.73 -17.376,2.818 -32.124,-0.036 -27.169,-5.31 -22.361,-4.342 -48.906,2.211 -15.745,3.887 -26.258,-0.903 -41.437,-4.408 -11.507,-2.523 -18.436,0.038 -29.693,2.343 -9.319,1.891 -14.706,0.56 -23.681,-0.825 -15.368,-2.019 -25.46,-2.953 -41.073,-1.5 -10.119,0.942 -20.559,1.13 -30.317,4.055 -0.424,0.161 -0.835,0.322 -1.236,0.485 C -176.747,17.193 -81.989,16.999 0,0"
             style="fill:#94ab13;fill-opacity:1;fill-rule:evenodd;stroke:none"
             id="path8821" />
        </g>
        <path
           d="M 0,-0.426 H 660.426 V 315.428 H 0 Z"
           style="fill:#2dc0ca;fill-opacity:1;fill-rule:evenodd;stroke:none"
           id="path8823" />
        <g
           id="g8825"
           transform="translate(660.4258,582.4409)">
          <path
             d="m 0,0 v -16.56 c -15.137,-7.239 -31.169,-18.866 -43.938,-25.261 -42.552,-21.313 -94.406,-25.512 -141.544,-24.467 -9.8,0.218 -44.52,2.105 -27.097,19.291 14.924,14.719 73.703,27.313 75.04,43.967 -2.587,13.299 -59.111,28.253 -71.256,28.349 -17.706,0.14 -38.768,-3.171 -57.811,-3.692 -34.459,-0.853 -65.034,0.964 -99.177,2.321 -3.027,0.121 -44.928,0.054 -17.674,-1.407 14.979,-0.804 29.946,-2.878 44.861,-4.601 9.868,-1.188 102.285,-8.224 94.076,-23.148 -4.392,-7.983 -10.904,-1.212 -10.671,-13.375 l 0.064,-3.328 c 0.455,-18.057 -28.491,-18.203 -41.018,-19.205 l -0.499,-0.04 c -86.217,-5.183 -116.48,4.108 -198.161,22.834 -49.01,11.236 -96.219,9.035 -146.226,11.222 -7.245,0.317 -13.668,0.644 -19.395,0.977 V 4.565 c 28.185,1.928 63.881,2.836 77.345,1.633 47.542,-4.25 88.758,-15.911 134.6,-27.779 l 6.765,-1.751 c 49.65,-12.169 111.375,-19.05 161.975,-10.399 45.339,7.751 -22.184,27.681 -31.86,30.241 -8.767,2.318 -39.614,8.079 -44.437,14.577 -12.037,11.062 -84.003,9.035 -105.137,10.254 -36.266,2.094 -76.161,7.226 -111.999,13.142 -21.555,3.56 40.132,-3.611 40.329,-3.632 46.221,-5.196 78.157,-4.643 124.128,-2.25 25.531,1.33 46.48,1.6 72.016,1.351 40.448,-0.488 77.902,2.341 117.744,8.989 29.662,4.949 42.58,-1.005 70.441,-10.171 l 3.601,-1.184 c 6.558,-2.181 27.583,-7.3 30.468,-13.002 7.009,-13.856 -18.899,-29.832 -29.079,-34.696 -13.304,-6.357 -58.737,-19.753 -64.639,-29.883 -3.846,-6.599 3.787,-8.362 8.899,-9.11 23.159,-3.392 88.098,4.05 111.801,11.215 40.503,12.242 48.93,22.534 81.93,44.496 C -3.634,-2.131 -1.795,-1.005 0,0"
             style="fill:#cff1fc;fill-opacity:1;fill-rule:evenodd;stroke:none"
             id="path8827" />
        </g>
        <g
           id="g8829"
           transform="translate(660.4258,216.9863)">
          <path
             d="m 0,0 v -9.17 c -1.597,-0.074 -2.868,-0.153 -3.727,-0.236 -36.988,-3.617 -80.502,-34.253 -124.207,-38.958 -38.465,-4.142 -86.706,14.152 -124.598,23.83 -18.14,4.635 -71.012,17.101 -19.771,26.975 14.64,2.821 25.299,5.499 1.574,7.909 -17.45,1.772 -35.505,1.8 -50.537,-8.177 -23.442,-16.124 -29.578,-9.34 -56.186,-7.038 -10.603,0.916 -28.204,1.716 -33.819,-9.665 -9.277,-18.803 -49.275,-22.775 -67.935,-21.852 -56.482,2.791 -103.557,8.985 -158.518,22.04 -8.476,2.014 -15.846,3.42 -22.702,4.417 v 6.772 c 7.549,-1.106 15.844,-2.769 25.737,-5.217 50.788,-12.567 108.114,-21.284 160.259,-24.037 11.123,-0.588 64.572,2.951 57.015,22.532 -3.779,9.789 -1.226,10.008 10.166,13.413 25.667,7.675 50.095,-6.615 77.123,2.481 4.187,1.408 8.357,2.961 12.501,4.495 24.984,9.272 79.665,6.538 105.382,-0.988 21.282,-6.228 -3.064,-8.687 -10.646,-8.975 -2.172,-0.082 -85.563,0.847 -57.864,-12.925 10.562,-5.25 54.426,-14.957 68.616,-18.791 76.756,-20.745 88.955,-15.447 158.58,14.4 C -27.87,-5.753 -14.229,-1.49 0,0 m 0,39.031 v -5.043 c -12.14,0.05 -29.93,2.253 -57.76,8.016 -32.785,6.789 -48.217,11.631 -82.466,11.47 -16.038,-0.076 -32.085,-0.146 -48.122,-0.358 -3.141,-0.044 -47.505,0.267 -41.45,-8.379 3.96,-5.653 2.473,-6.252 -6.615,-8.325 -25.582,-5.836 -71.297,-8.171 -98.801,-9.939 -87.567,-5.631 -144.548,-1.428 -229.53,19.638 -34.214,8.483 -37.529,7.957 -72.979,8.212 -2.162,0.016 -10.564,0.071 -22.703,0.164 v 6.769 c 30.069,0.04 53.006,-0.16 56.264,-0.633 20.503,-2.974 49.813,-13.362 71.789,-18.699 79.702,-19.356 165.086,-18.63 246.191,-8.834 6,0.725 41.412,3.561 19.337,11.349 -16.683,5.884 -49.28,12.74 -7.144,16.404 35.719,3.104 79.192,1.561 115.666,1.531 28.499,-0.022 40.385,0.494 68.533,-5.998 C -71.367,52.128 -28.605,40.019 0,39.031"
             style="fill:#60dfe8;fill-opacity:1;fill-rule:evenodd;stroke:none"
             id="path8831" />
        </g>
        <g
           id="g8833"
           transform="translate(660.4258,130.7861)">
          <path
             d="M 0,0 V -131.212 H -660.426 V 8.486 c 21.269,4.287 43.864,7.757 62.771,0.125 2.658,-1.069 5.28,-2.131 8.001,-3.049 l 3.61,-1.024 c 16.818,-4.778 55.041,2.38 73.951,4.239 37.002,3.641 37.373,-6.551 67.201,-8.542 34.595,-2.31 59.305,-13.74 94.713,-13.087 20.639,0.712 48.095,9.804 64.027,8.412 15.347,-1.343 27.363,-6.216 45.359,-7.152 l 4.358,-0.061 c 29.941,-0.425 54.773,11.954 82.08,11.141 33.863,-1.01 41.426,-5.328 76.831,2.73 C -40.194,10.71 -40.805,1.316 -7.682,0.1 -5.121,0.062 -2.561,0.029 0,0"
             style="fill:#f7dc99;fill-opacity:1;fill-rule:evenodd;stroke:none"
             id="path8835" />
        </g>
        <g
           id="g8837"
           transform="translate(660.4258,152.4863)">
          <path
             d="m 0,0 v -26.026 c -2.561,0.031 -5.121,0.064 -7.682,0.099 -33.123,1.219 -32.512,10.613 -69.842,2.118 -35.405,-8.055 -42.968,-3.738 -76.831,-2.727 -27.307,0.812 -52.139,-11.566 -82.08,-11.142 l -4.358,0.062 c -17.996,0.935 -30.012,5.807 -45.359,7.149 -15.932,1.395 -43.388,-7.699 -64.027,-8.411 -35.408,-0.652 -60.118,10.778 -94.713,13.089 -29.828,1.99 -30.199,12.183 -67.201,8.542 -18.91,-1.859 -57.133,-9.018 -73.951,-4.239 l -3.61,1.024 c -2.721,0.918 -5.343,1.978 -8.001,3.048 -18.907,7.631 -41.502,4.163 -62.771,-0.124 V 5.848 c 26.784,3.748 38.02,4.468 68.723,-2.281 37.011,-6.202 81.933,4.649 120.668,-0.63 22.844,-3.114 31.13,-1.728 55.031,-9.217 33.492,-10.493 56.422,-21.657 92.615,-13.557 13.961,3.481 18.781,7.526 30.723,12.343 8.119,3.272 15.946,-4.008 25.552,-7.147 26.321,-8.598 56.537,-5.691 81.555,5.674 21.474,10.43 21.386,7.235 43.922,1.188 C -76.192,-25.334 -77.773,9.548 -31.715,2.473 -21.662,0.929 -10.928,0.248 0,0"
             style="fill:#ffffff;fill-opacity:1;fill-rule:evenodd;stroke:none"
             id="path8839" />
        </g>
        <g
           id="g8841"
           transform="translate(447.5898,44.7734)">
          <path
             d="M 0,0 C 1.878,10.994 65.506,12.063 48.706,-1.431 40.187,-8.273 4.467,-13.461 0,0 m 105.286,6.689 c -2.903,0.276 -16.258,1.549 -9.327,-4.603 13.304,-11.814 46.59,-1.811 9.327,4.603 m 78.749,14.785 c -12.718,-18.713 -57.61,4.356 -7.561,6.017 4.362,0.144 9.794,-0.272 7.561,-6.017 M 38.479,53.701 C 30.232,39.46 -1.271,50.696 26.705,57.495 29.822,58.252 40.177,59.91 38.479,53.701 M -68.352,30.895 c -2.961,9.462 25.122,4.532 12.382,-3.073 -4.693,-2.803 -9.144,-0.722 -12.382,3.073 m -58.497,-2.854 c -5.085,-9.007 -31.272,-2.684 -17.302,3.244 3.884,1.647 18.204,2.83 17.302,-3.244 m -94.084,-30.56 c -4.694,6.952 23.399,5.02 12.34,-2.134 -4.157,-2.689 -8.955,-0.828 -12.34,2.134 m -16.648,-24.766 c -15.091,6.265 8.41,19.23 14.268,9.19 3.546,-6.078 -5.033,-10.745 -11.636,-9.634 z m -168.986,57.454 c 44.673,4.758 43.581,-14.672 6.805,-11.009 -9.255,0.923 -26.121,6.163 -6.805,11.009 m 57.914,11.94 c -18.484,9.784 37.215,11.533 33.333,0.93 -2.628,-7.177 -23.639,-4.397 -29.982,-2.129 z m 44.759,-37.932 c 36.644,0.57 19.09,-11.992 -7.474,-7.216 -12.823,3.498 3.593,6.665 7.474,7.216 m 33.759,34.26 c -22.71,15.976 25.775,7.227 28.071,-5.926 1.752,-10.05 -23.509,3.144 -25.894,4.597 z M -84.419,-0.574 c 40.458,-1.628 18.549,-21.174 -4.988,-9.567 -12.693,6.261 -2.875,9.106 4.988,9.567"
             style="fill:#e3c578;fill-opacity:1;fill-rule:evenodd;stroke:none"
             id="path8843" />
        </g>
        <g
           id="g8845"
           transform="translate(426.0869,54.3799)">
          <path
             d="m 0,0 c -2.365,-0.975 -31.28,4.653 -37,4.939 -41.54,1.076 -66.359,-16.733 -116.158,-9.76 -37.46,5.245 -48.659,11.288 -89.075,4.981 -40.378,-6.302 14.713,8.404 24.898,9.36 31.152,2.924 63.967,-9.852 100.384,-7.238 13.39,0.96 26.271,3.306 39.444,5.751 29.615,5.522 47.625,6.738 75.402,-6.355 C -1.668,1.472 0.332,0.702 0,0 m 197.496,29.716 c -12.152,-2.32 -35.279,3.125 -50.068,3.549 -24.572,0.707 -44.257,0.032 -68.635,-4.397 -21.956,-3.602 -35.966,-1.391 -57.668,0.436 -15.76,1.326 16.044,1.154 17.077,1.154 25.304,-1.454 25.17,-0.928 50.226,3.743 24.438,4.554 59.798,3.678 84.455,-1.11 1.847,-0.36 24.749,-3.241 24.613,-3.375 m -423.243,18.627 c -6.275,6.373 -40.84,8.594 -52.141,10.801 -30.304,5.92 -60.538,14.334 -90.108,1.671 -10.622,-4.547 -17.925,-8.086 -29.175,-11.446 -18.161,-5.42 8.494,-5.143 15.496,-3.344 22.87,5.88 24.206,13.665 53.309,11.776 25.451,-1.653 79.347,-16.2 100.057,-11.4 l 2.624,1.426 z"
             style="fill:#ffeec4;fill-opacity:1;fill-rule:evenodd;stroke:none"
             id="path8847" />
        </g>
        <g
           id="g8849"
           transform="translate(465.6055,316.7031)">
          <path
             d="m 0,0 c 7.17,-0.295 12.6,-0.43 19.81,-0.173 10.029,0.358 18.525,-0.71 28.682,0.334 2.099,0.215 4.046,0.353 6.156,0.434 7.705,0.202 14.359,-0.508 22.293,0.007 1.221,0.079 2.414,0.125 3.634,0.166 9.736,0.245 19.493,0.46 29.186,-0.622 16.819,-2.156 20.973,1.029 36.087,1.7 2.63,0.116 15.571,0.539 15.528,-2.551 -4.541,-1.111 -13.063,-0.102 -19.139,-0.819 -15.478,-1.828 -16.478,-3.824 -33.526,-2.317 -8.189,0.668 -17.012,0.412 -25.311,0.487 -5.925,0.008 -10.788,-0.3 -16.857,-0.019 C 58.392,-3.022 54.91,-3.363 46.98,-4.228 38.539,-5.148 32.852,-4.435 24.786,-4.518 17.653,-4.593 11.34,-5.923 3.865,-5.815 c -10.372,0.149 -20.584,0.206 -30.955,-0.247 -12.01,-0.554 -16.556,4.547 -31.658,1.879 -7.066,-1.248 -9.564,-1.95 -16.976,-2.17 l -1.196,-0.035 c -14.932,-0.45 -26.978,-0.868 -41.957,0.865 -10.531,1.03 -18.368,0.25 -28.558,0.29 -9.205,0.037 -15.952,2.966 -26.35,2.332 -8.146,-0.497 -12.951,-1.623 -21.543,-1.152 -5.48,0.301 -10.622,1.014 -16.029,1.905 -14.167,2.372 -16.582,0.811 -29.917,-0.995 -6.951,-0.942 -8.74,-0.783 -0.694,1.247 18.214,4.599 19.433,3.742 37.601,2.344 8.683,-0.628 16.975,-0.858 25.662,-0.124 10.257,0.868 14.596,0.297 24.526,-0.45 4.379,-0.33 8.767,-0.15 13.153,-0.023 15.715,0.479 31.328,-1.341 47.223,-1.166 11.385,0.211 22.827,0.219 34.137,1.582 11.057,1.332 14.897,-0.159 25.155,-0.745 6.947,-0.395 16.412,0.457 23.73,0.562 C -7.169,0.136 -3.612,0.108 0,0"
             style="fill:#ffffff;fill-opacity:1;fill-rule:evenodd;stroke:none"
             id="path8851" />
        </g>
        <g
           id="g8853"
           transform="translate(171.2915,285.5303)">
          <path
             d="m 0,0 c -1.071,-0.578 -4.474,-0.216 -5.672,0.082 -4.274,1.064 -4.69,1.147 -9.861,0.528 -7.28,-0.87 -12.286,-1.81 -19.964,-0.936 -5.668,0.646 7.837,1.184 8.236,1.217 4.799,0.381 10.687,1.481 15.057,1.645 4.898,0.186 6.058,-1.08 10.298,-1.935 C -1.578,0.534 0.156,0.27 0,0 m -3.279,-76.546 c -2.423,-1.133 -12.951,1.412 -17.413,1.621 -9.185,0.429 -24.86,-3.608 -31.47,-2.147 -3.431,0.757 7.01,2.071 7.452,2.149 17.576,3.107 23.294,5.084 39.769,-0.583 0.602,-0.207 1.943,-0.566 1.662,-1.04 m 168.984,57.353 c -1.313,-0.694 -8.485,-0.014 -11.266,-0.056 -5.335,-0.083 -23.83,-2.208 -27.146,-1.235 -4.452,1.306 21.113,4.145 22.391,4.233 5.013,0.346 11.832,0.101 15.445,-2.068 0.504,-0.303 0.779,-0.487 0.576,-0.874 m -9.81,-94.165 c -1.603,-0.393 -5.653,2.033 -14.462,0.776 -12.244,-1.746 -22.755,-6.128 -36.044,-3.884 -6.093,1.028 9.107,1.863 9.637,1.928 9.424,1.135 26.845,6.821 35.202,4.591 1.503,-0.403 6.389,-2.4 5.667,-3.411 M 452.891,8.528 C 452.463,8.256 450.023,8.236 449.062,8.109 443.14,7.33 441.42,5.479 434.197,5.8 c -10.607,0.47 -7.963,1.767 0.861,2.088 5.187,0.188 9.311,1.904 13.564,1.93 1.258,0.007 4.571,-0.461 4.269,-1.29 m -79.874,-32.239 c -0.874,-0.562 -7.302,-0.906 -9.023,-0.519 -2.904,0.655 -2.746,1.611 -7.301,1.404 -4.082,-0.187 -14.738,-1.938 -17.547,-1 -1.371,0.458 4.167,0.969 4.351,0.996 4.828,0.673 13.189,2.265 17.863,1.217 3.415,-0.766 2.466,-0.954 6.799,-1.31 0.564,-0.048 5.059,-0.291 4.858,-0.788"
             style="fill:#60dfe8;fill-opacity:1;fill-rule:evenodd;stroke:none"
             id="path8855" />
        </g>
      </g>
    </g>
  </g>
</svg>
